<svg xmlns="http://www.w3.org/2000/svg" width="512" height="512" viewBox="0 0 512 512">
  <!-- Background Circle -->
  <circle cx="256" cy="256" r="256" fill="#2a623d"/>
  <circle cx="256" cy="256" r="235" fill="#97ce4c"/>
  
  <!-- Rick -->
  <path d="M165 178c-5 0-12 5-22 15-10 12-20 25-20 40 0 25 15 40 35 50 10 5 20 7 32 7 7 0 15-1 25-3 0 0-5 20-5 30s5 25 15 35c10 8 22 13 37 13 10 0 22-3 32-8 10-5 20-10 27-18 4-4 7-8 10-13-15 2-32-3-45-15-15-15-17-35-5-50-10 5-22 8-35 8-30 0-55-15-65-40-5-15-5-35 5-50-15-5-20-1-21-1z" fill="#c0a98e"/>
  
  <!-- Rick's Hair -->
  <path d="M208 120c-10 0-20 10-30 20-12 12-20 25-20 45 0 10 5 20 10 28 5 7 10 12 20 17 5 3 12 5 20 7-5-10-8-20-8-32 0-15 8-28 20-40 10-10 20-15 30-15 5 0 10 2 15 5-5-5-10-10-15-15-10-10-25-20-42-20z" fill="#a4d4fa"/>
  
  <!-- Morty -->
  <path d="M304 178c-10 0-20 5-27 13-10 10-13 22-13 37 0 10 3 20 10 30 7 10 20 17 35 17 10 0 18-2 25-7 8-5 13-12 16-20 3-7 5-15 5-23 0-15-5-27-13-35-10-8-20-12-38-12z" fill="#f8b878"/>
  
  <!-- Expressions -->
  <ellipse cx="180" cy="190" rx="15" ry="18" fill="#fff"/>
  <circle cx="180" cy="190" r="5" fill="#000"/>
  <ellipse cx="225" cy="190" rx="15" ry="18" fill="#fff"/>
  <circle cx="225" cy="190" r="5" fill="#000"/>
  <path d="M180 220c10 15 35 20 45 5" fill="none" stroke="#000" stroke-width="3"/>
  
  <ellipse cx="335" cy="190" rx="15" ry="18" fill="#fff"/>
  <circle cx="335" cy="190" r="5" fill="#000"/>
  <ellipse cx="380" cy="190" rx="15" ry="18" fill="#fff"/>
  <circle cx="380" cy="190" r="5" fill="#000"/>
  <path d="M335 230c10 0 35 0 45 0" fill="none" stroke="#000" stroke-width="3"/>
  
  <!-- Rick's Mouth -->
  <path d="M170 260c20 15 50 10 70 0" fill="#ff5555"/>
  <path d="M180 260c5 0 10 5 15 5 5 0 10-5 15-5 5 0 10 5 15 5s10-5 15-5" fill="none" stroke="#f0e14a" stroke-width="3"/>
  
  <!-- Rick's Lab Coat -->
  <path d="M140 320c10 20 30 30 50 30 15 0 30-5 40-15 5-5 5-10 0-15-5-5-10-5-15 0-5 5-15 10-25 10-15 0-30-5-35-20-2-5-10-5-15 10z" fill="#fff"/>
</svg> 